Coordinates
version=1
nRows=6
nColumns=34
inDegrees=yes

Units are S.I. units (second, meters, Newtons, ...)
If the header above contains a line with 'inDegrees', this indicates whether rotational values are in degrees (yes) or radians (no).

endheader
time	pelvis_tilt	pelvis_list	pelvis_rotation	pelvis_tx	pelvis_ty	pelvis_tz	hip_flexion_r	hip_adduction_r	hip_rotation_r	knee_angle_r	ankle_angle_r	subtalar_angle_r	mtp_angle_r	hip_flexion_l	hip_adduction_l	hip_rotation_l	knee_angle_l	ankle_angle_l	subtalar_angle_l	mtp_angle_l	lumbar_extension	lumbar_bending	lumbar_rotation	arm_flex_r	arm_add_r	arm_rot_r	elbow_flex_r	pro_sup_r	arm_flex_l	arm_add_l	arm_rot_l	elbow_flex_l	pro_sup_l
      2.98333330	     -0.45509667	     -6.96520349	     -1.28633102	      0.44127563	      0.92410031	     -0.18463434	     21.06897371	      0.96127359	      0.88421580	      4.69289314	      7.66584110	     -0.41690616	      0.00000000	      0.79756329	      0.45714989	      1.81599122	      7.78172669	     14.05052122	     -5.15202588	      0.00000000	     -6.04395337	      0.73599646	      3.73606843	     75.10347698	      0.67255306	     57.06848513	    129.22567189	     98.28688740	     85.51071604	     -9.57514813	     80.25443965	    137.19082361	     94.55355315
      3.00000000	     -0.19316575	     -7.03710218	     -1.35602568	      0.43861176	      0.92583464	     -0.18359040	     21.58917123	      1.04043805	      0.85943458	      4.99200050	      7.46778806	     -1.20289550	      0.00000000	      0.47911255	      0.38170699	      1.83965176	      7.66932800	     14.52805609	     -4.50143491	      0.00000000	     -6.46923361	      0.63946762	      3.21937569	     74.93106327	      1.01428232	     57.64837512	    128.83032328	     98.25934946	     85.32144495	    -10.01141549	     80.47897570	    136.93370689	     94.67434853
      3.01666670	     -0.02770998	     -7.11685258	     -1.41748114	      0.43659437	      0.92529891	     -0.18359006	     22.19004134	      1.11394051	      0.60114305	      5.27189632	      7.32053128	     -1.37486816	      0.00000000	      0.28732949	      0.28411061	      1.91396258	      7.49722417	     14.78402707	     -4.47530564	      0.00000000	     -6.82951596	      0.57707070	      3.11605597	     74.85143325	      0.96260700	     57.75015745	    128.74722762	     98.25575269	     85.30405659	    -10.08000700	     80.51300870	    136.88971704	     94.69025872
      3.03333330	      0.08126033	     -7.09474159	     -1.30411073	      0.43537929	      0.92498440	     -0.18332966	     22.85460125	      0.99823310	      0.41180290	      5.74921648	      7.43125811	     -1.79182843	      0.00000000	      0.27779336	      0.27552357	      2.28068321	      7.34571342	     15.45457630	     -4.22791408	      0.00000000	     -7.21255869	      0.48135824	      2.80698262	     75.28108988	      1.23375060	     57.92256811	    128.52707541	     98.23925604	     85.70343318	    -10.09871742	     80.55764139	    136.43856713	     94.72400913
      3.05000000	      0.15450378	     -7.13481892	     -1.25152041	      0.43469262	      0.92733623	     -0.18276413	     23.21269269	      1.02575367	      0.46010877	      5.67606146	      7.42543183	     -1.77856114	      0.00000000	      0.30149798	      0.13827885	      2.31928412	      7.19598274	     15.55771427	     -4.22162155	      0.00000000	     -7.45660487	      0.41742258	      2.72500738	     75.26585885	      1.20388248	     57.94722563	    128.48503576	     98.23857078	     85.68787510	    -10.09252336	     80.57856890	    136.40460937	     94.72708747
      3.06666670	      0.17116479	     -7.15928478	     -1.21627362	      0.43215204	      0.92671910	     -0.18213804	     24.03902298	      1.01453223	      0.47936702	      6.37753318	      7.68341245	     -2.00693801	      0.00000000	      0.31504641	      0.02994799	      2.77254150	      6.87768010	     16.63901382	     -3.94533225	      0.00000000	     -7.74403642	      0.22793361	      2.27683950	     75.78198052	      1.61056470	     58.09316856	    128.18268382	     98.22824603	     86.57581800	    -10.01509266	     80.41773162	    135.89397498	     94.73701012
